<svg width="246" height="48" viewBox="0 0 246 48" fill="none" xmlns="http://www.w3.org/2000/svg">
<mask id="path-1-outside-1_3_9" maskUnits="userSpaceOnUse" x="65" y="20" width="175" height="21" fill="black">
<rect fill="white" x="65" y="20" width="175" height="21"/>
<path d="M65.564 40V20.695H66.86V40H65.564ZM71.7611 40V22.369H72.3551L83.8571 35.599C84.2711 36.067 84.6491 36.535 84.9911 37.003C85.3511 37.453 85.5401 37.687 85.5581 37.705C85.5221 37.273 85.5041 36.427 85.5041 35.167V22.477H86.7461V40.108H86.1521L74.4341 26.662L72.9491 24.853C72.9851 25.213 73.0031 26.059 73.0031 27.391V40H71.7611ZM94.871 23.233C93.899 23.233 93.107 23.467 92.495 23.935C91.883 24.403 91.577 25.06 91.577 25.906C91.577 26.878 91.982 27.751 92.792 28.525C93.368 29.083 94.106 29.677 95.006 30.307C95.924 30.919 96.554 31.36 96.896 31.63C97.238 31.9 97.652 32.269 98.138 32.737C99.02 33.619 99.461 34.636 99.461 35.788C99.461 37.282 98.957 38.416 97.949 39.19C96.959 39.946 95.564 40.324 93.764 40.324C91.982 40.324 90.488 39.856 89.282 38.92L89.93 37.975C91.154 38.803 92.45 39.217 93.818 39.217C95.186 39.217 96.248 38.929 97.004 38.353C97.778 37.777 98.165 36.967 98.165 35.923C98.165 35.023 97.778 34.195 97.004 33.439C96.464 32.899 95.735 32.314 94.817 31.684C93.917 31.054 93.287 30.604 92.927 30.334C92.567 30.046 92.144 29.668 91.658 29.2C90.74 28.282 90.281 27.22 90.281 26.014C90.281 24.808 90.704 23.863 91.55 23.179C92.414 22.495 93.602 22.153 95.114 22.153C96.626 22.153 97.985 22.45 99.191 23.044L98.732 24.043C97.616 23.503 96.329 23.233 94.871 23.233ZM102.549 40V22.477H103.791V40H102.549ZM115.701 23.314C113.703 23.314 112.02 24.079 110.652 25.609C109.302 27.121 108.627 28.984 108.627 31.198C108.627 33.412 109.392 35.293 110.922 36.841C112.452 38.371 114.252 39.136 116.322 39.136C118.41 39.136 120.03 38.893 121.182 38.407V31.198H122.424V38.974C121.02 39.838 119.031 40.27 116.457 40.27C113.883 40.27 111.714 39.397 109.95 37.651C108.186 35.905 107.304 33.763 107.304 31.225C107.304 28.669 108.096 26.527 109.68 24.799C111.282 23.071 113.343 22.207 115.863 22.207C117.897 22.207 119.886 22.522 121.83 23.152L121.506 24.178C119.634 23.602 117.699 23.314 115.701 23.314ZM139.847 40V31.144H127.67V40H126.428V22.477H127.67V30.037H139.847V22.477H141.089V40H139.847ZM148.816 23.584H142.876V22.477H155.971V23.584H150.031V40H148.816V23.584ZM175.032 40.324C172.224 40.324 169.812 39.37 167.796 37.462C165.78 35.536 164.772 33.169 164.772 30.361C164.772 27.535 165.654 25.168 167.418 23.26C169.182 21.334 171.441 20.371 174.195 20.371C176.355 20.371 178.542 20.731 180.756 21.451L180.405 22.531C178.245 21.883 176.175 21.559 174.195 21.559C171.837 21.559 169.911 22.405 168.417 24.097C166.923 25.789 166.176 27.859 166.176 30.307C166.176 32.755 167.04 34.843 168.768 36.571C170.514 38.281 172.602 39.136 175.032 39.136C177.156 39.136 178.992 38.812 180.54 38.164L180.945 39.082C180.261 39.478 179.361 39.784 178.245 40C177.147 40.216 176.076 40.324 175.032 40.324ZM183.81 40V22.558C185.358 22.432 186.672 22.369 187.752 22.369C189.408 22.369 190.776 22.801 191.856 23.665C192.936 24.511 193.476 25.726 193.476 27.31C193.476 28.372 193.17 29.353 192.558 30.253C191.946 31.153 191.253 31.882 190.479 32.44C192.621 35.284 193.944 36.985 194.448 37.543C195.474 38.605 196.59 39.208 197.796 39.352L197.769 40.189C196.761 40.171 195.942 40.027 195.312 39.757C194.682 39.469 194.052 38.992 193.422 38.326C192.81 37.66 191.451 35.869 189.345 32.953C187.887 32.953 186.456 32.908 185.052 32.818V40H183.81ZM188.67 31.927C189.372 31.927 190.128 31.459 190.938 30.523C191.748 29.587 192.153 28.498 192.153 27.256C192.153 26.014 191.73 25.069 190.884 24.421C190.038 23.773 188.94 23.449 187.59 23.449C186.87 23.449 186.024 23.485 185.052 23.557V31.792C186.348 31.882 187.554 31.927 188.67 31.927ZM205.437 40.27C202.935 40.27 200.838 39.397 199.146 37.651C197.454 35.905 196.608 33.772 196.608 31.252C196.608 28.714 197.454 26.572 199.146 24.826C200.838 23.08 202.935 22.207 205.437 22.207C207.939 22.207 210.036 23.08 211.728 24.826C213.42 26.572 214.266 28.714 214.266 31.252C214.266 33.772 213.42 35.905 211.728 37.651C210.036 39.397 207.939 40.27 205.437 40.27ZM205.437 23.314C203.277 23.314 201.477 24.079 200.037 25.609C198.615 27.139 197.904 29.02 197.904 31.252C197.904 33.466 198.615 35.338 200.037 36.868C201.477 38.38 203.277 39.136 205.437 39.136C207.615 39.136 209.415 38.38 210.837 36.868C212.259 35.338 212.97 33.466 212.97 31.252C212.97 29.02 212.259 27.139 210.837 25.609C209.415 24.079 207.615 23.314 205.437 23.314ZM221.636 35.734L226.685 22.828H227.468L231.869 35.815L232.517 38.002C232.571 37.66 232.796 36.94 233.192 35.842L237.674 22.477H238.97L232.868 40.108H232.139C229.133 31.486 227.576 27.004 227.468 26.662C227.306 26.176 227.144 25.699 226.982 25.231C226.892 25.537 226.649 26.176 226.253 27.148L221.15 40.108H220.421L214.265 22.477H215.642L220.097 35.626C220.349 36.346 220.583 37.147 220.799 38.029C220.889 37.669 221.168 36.904 221.636 35.734Z"/>
</mask>
<path d="M65.564 40V20.695H66.86V40H65.564ZM71.7611 40V22.369H72.3551L83.8571 35.599C84.2711 36.067 84.6491 36.535 84.9911 37.003C85.3511 37.453 85.5401 37.687 85.5581 37.705C85.5221 37.273 85.5041 36.427 85.5041 35.167V22.477H86.7461V40.108H86.1521L74.4341 26.662L72.9491 24.853C72.9851 25.213 73.0031 26.059 73.0031 27.391V40H71.7611ZM94.871 23.233C93.899 23.233 93.107 23.467 92.495 23.935C91.883 24.403 91.577 25.06 91.577 25.906C91.577 26.878 91.982 27.751 92.792 28.525C93.368 29.083 94.106 29.677 95.006 30.307C95.924 30.919 96.554 31.36 96.896 31.63C97.238 31.9 97.652 32.269 98.138 32.737C99.02 33.619 99.461 34.636 99.461 35.788C99.461 37.282 98.957 38.416 97.949 39.19C96.959 39.946 95.564 40.324 93.764 40.324C91.982 40.324 90.488 39.856 89.282 38.92L89.93 37.975C91.154 38.803 92.45 39.217 93.818 39.217C95.186 39.217 96.248 38.929 97.004 38.353C97.778 37.777 98.165 36.967 98.165 35.923C98.165 35.023 97.778 34.195 97.004 33.439C96.464 32.899 95.735 32.314 94.817 31.684C93.917 31.054 93.287 30.604 92.927 30.334C92.567 30.046 92.144 29.668 91.658 29.2C90.74 28.282 90.281 27.22 90.281 26.014C90.281 24.808 90.704 23.863 91.55 23.179C92.414 22.495 93.602 22.153 95.114 22.153C96.626 22.153 97.985 22.45 99.191 23.044L98.732 24.043C97.616 23.503 96.329 23.233 94.871 23.233ZM102.549 40V22.477H103.791V40H102.549ZM115.701 23.314C113.703 23.314 112.02 24.079 110.652 25.609C109.302 27.121 108.627 28.984 108.627 31.198C108.627 33.412 109.392 35.293 110.922 36.841C112.452 38.371 114.252 39.136 116.322 39.136C118.41 39.136 120.03 38.893 121.182 38.407V31.198H122.424V38.974C121.02 39.838 119.031 40.27 116.457 40.27C113.883 40.27 111.714 39.397 109.95 37.651C108.186 35.905 107.304 33.763 107.304 31.225C107.304 28.669 108.096 26.527 109.68 24.799C111.282 23.071 113.343 22.207 115.863 22.207C117.897 22.207 119.886 22.522 121.83 23.152L121.506 24.178C119.634 23.602 117.699 23.314 115.701 23.314ZM139.847 40V31.144H127.67V40H126.428V22.477H127.67V30.037H139.847V22.477H141.089V40H139.847ZM148.816 23.584H142.876V22.477H155.971V23.584H150.031V40H148.816V23.584ZM175.032 40.324C172.224 40.324 169.812 39.37 167.796 37.462C165.78 35.536 164.772 33.169 164.772 30.361C164.772 27.535 165.654 25.168 167.418 23.26C169.182 21.334 171.441 20.371 174.195 20.371C176.355 20.371 178.542 20.731 180.756 21.451L180.405 22.531C178.245 21.883 176.175 21.559 174.195 21.559C171.837 21.559 169.911 22.405 168.417 24.097C166.923 25.789 166.176 27.859 166.176 30.307C166.176 32.755 167.04 34.843 168.768 36.571C170.514 38.281 172.602 39.136 175.032 39.136C177.156 39.136 178.992 38.812 180.54 38.164L180.945 39.082C180.261 39.478 179.361 39.784 178.245 40C177.147 40.216 176.076 40.324 175.032 40.324ZM183.81 40V22.558C185.358 22.432 186.672 22.369 187.752 22.369C189.408 22.369 190.776 22.801 191.856 23.665C192.936 24.511 193.476 25.726 193.476 27.31C193.476 28.372 193.17 29.353 192.558 30.253C191.946 31.153 191.253 31.882 190.479 32.44C192.621 35.284 193.944 36.985 194.448 37.543C195.474 38.605 196.59 39.208 197.796 39.352L197.769 40.189C196.761 40.171 195.942 40.027 195.312 39.757C194.682 39.469 194.052 38.992 193.422 38.326C192.81 37.66 191.451 35.869 189.345 32.953C187.887 32.953 186.456 32.908 185.052 32.818V40H183.81ZM188.67 31.927C189.372 31.927 190.128 31.459 190.938 30.523C191.748 29.587 192.153 28.498 192.153 27.256C192.153 26.014 191.73 25.069 190.884 24.421C190.038 23.773 188.94 23.449 187.59 23.449C186.87 23.449 186.024 23.485 185.052 23.557V31.792C186.348 31.882 187.554 31.927 188.67 31.927ZM205.437 40.27C202.935 40.27 200.838 39.397 199.146 37.651C197.454 35.905 196.608 33.772 196.608 31.252C196.608 28.714 197.454 26.572 199.146 24.826C200.838 23.08 202.935 22.207 205.437 22.207C207.939 22.207 210.036 23.08 211.728 24.826C213.42 26.572 214.266 28.714 214.266 31.252C214.266 33.772 213.42 35.905 211.728 37.651C210.036 39.397 207.939 40.27 205.437 40.27ZM205.437 23.314C203.277 23.314 201.477 24.079 200.037 25.609C198.615 27.139 197.904 29.02 197.904 31.252C197.904 33.466 198.615 35.338 200.037 36.868C201.477 38.38 203.277 39.136 205.437 39.136C207.615 39.136 209.415 38.38 210.837 36.868C212.259 35.338 212.97 33.466 212.97 31.252C212.97 29.02 212.259 27.139 210.837 25.609C209.415 24.079 207.615 23.314 205.437 23.314ZM221.636 35.734L226.685 22.828H227.468L231.869 35.815L232.517 38.002C232.571 37.66 232.796 36.94 233.192 35.842L237.674 22.477H238.97L232.868 40.108H232.139C229.133 31.486 227.576 27.004 227.468 26.662C227.306 26.176 227.144 25.699 226.982 25.231C226.892 25.537 226.649 26.176 226.253 27.148L221.15 40.108H220.421L214.265 22.477H215.642L220.097 35.626C220.349 36.346 220.583 37.147 220.799 38.029C220.889 37.669 221.168 36.904 221.636 35.734Z" fill="#FF7F00"/>
<path d="M65.564 40H65.264C65.264 40.1657 65.3983 40.3 65.564 40.3V40ZM65.564 20.695V20.395C65.3983 20.395 65.264 20.5293 65.264 20.695H65.564ZM66.86 20.695H67.16C67.16 20.5293 67.0257 20.395 66.86 20.395V20.695ZM66.86 40V40.3C67.0257 40.3 67.16 40.1657 67.16 40H66.86ZM65.864 40V20.695H65.264V40H65.864ZM65.564 20.995H66.86V20.395H65.564V20.995ZM66.56 20.695V40H67.16V20.695H66.56ZM66.86 39.7H65.564V40.3H66.86V39.7ZM71.7611 40H71.4611C71.4611 40.1657 71.5954 40.3 71.7611 40.3V40ZM71.7611 22.369V22.069C71.5954 22.069 71.4611 22.2033 71.4611 22.369H71.7611ZM72.3551 22.369L72.5815 22.1722C72.5246 22.1066 72.442 22.069 72.3551 22.069V22.369ZM83.8571 35.599L83.6307 35.7958L83.6324 35.7978L83.8571 35.599ZM84.9911 37.003L84.7487 37.1802L84.7569 37.1904L84.9911 37.003ZM85.5581 37.705L85.346 37.9171C85.435 38.0062 85.5701 38.0301 85.6844 37.9772C85.7986 37.9242 85.8676 37.8055 85.8571 37.6801L85.5581 37.705ZM85.5041 22.477V22.177C85.3384 22.177 85.2041 22.3113 85.2041 22.477H85.5041ZM86.7461 22.477H87.0461C87.0461 22.3113 86.9118 22.177 86.7461 22.177V22.477ZM86.7461 40.108V40.408C86.9118 40.408 87.0461 40.2737 87.0461 40.108H86.7461ZM86.1521 40.108L85.926 40.3051C85.9829 40.3705 86.0654 40.408 86.1521 40.408V40.108ZM74.4341 26.662L74.2022 26.8524L74.208 26.8591L74.4341 26.662ZM72.9491 24.853L73.181 24.6627C73.0971 24.5605 72.9562 24.5252 72.8341 24.5759C72.712 24.6266 72.6375 24.7513 72.6506 24.8828L72.9491 24.853ZM73.0031 40V40.3C73.1688 40.3 73.3031 40.1657 73.3031 40H73.0031ZM72.0611 40V22.369H71.4611V40H72.0611ZM71.7611 22.669H72.3551V22.069H71.7611V22.669ZM72.1287 22.5658L83.6307 35.7958L84.0835 35.4022L72.5815 22.1722L72.1287 22.5658ZM83.6324 35.7978C84.0407 36.2593 84.4128 36.7201 84.7489 37.18L85.2334 36.826C84.8854 36.3499 84.5015 35.8747 84.0818 35.4002L83.6324 35.7978ZM84.7569 37.1904C84.937 37.4155 85.0746 37.5869 85.1695 37.7045C85.2169 37.7632 85.2541 37.809 85.2808 37.8414C85.3005 37.8654 85.3282 37.8993 85.346 37.9171L85.7703 37.4929C85.7791 37.5017 85.7764 37.4996 85.7444 37.4606C85.7193 37.43 85.6834 37.3858 85.6363 37.3275C85.5422 37.2111 85.4053 37.0405 85.2254 36.8156L84.7569 37.1904ZM85.8571 37.6801C85.8223 37.2625 85.8041 36.4288 85.8041 35.167H85.2041C85.2041 36.4252 85.222 37.2835 85.2592 37.7299L85.8571 37.6801ZM85.8041 35.167V22.477H85.2041V35.167H85.8041ZM85.5041 22.777H86.7461V22.177H85.5041V22.777ZM86.4461 22.477V40.108H87.0461V22.477H86.4461ZM86.7461 39.808H86.1521V40.408H86.7461V39.808ZM86.3783 39.9109L74.6603 26.4649L74.208 26.8591L85.926 40.3051L86.3783 39.9109ZM74.666 26.4717L73.181 24.6627L72.7173 25.0433L74.2023 26.8523L74.666 26.4717ZM72.6506 24.8828C72.6848 25.2248 72.7031 26.0543 72.7031 27.391H73.3031C73.3031 26.0637 73.2854 25.2012 73.2476 24.8231L72.6506 24.8828ZM72.7031 27.391V40H73.3031V27.391H72.7031ZM73.0031 39.7H71.7611V40.3H73.0031V39.7ZM92.495 23.935L92.3128 23.6967L92.3128 23.6967L92.495 23.935ZM92.792 28.525L93.0008 28.3095L92.9993 28.3081L92.792 28.525ZM95.006 30.307L94.8339 30.5528L94.8396 30.5566L95.006 30.307ZM96.896 31.63L96.7101 31.8655L96.7101 31.8655L96.896 31.63ZM98.138 32.737L98.3502 32.5248L98.3461 32.5209L98.138 32.737ZM97.949 39.19L98.1311 39.4284L98.1317 39.4279L97.949 39.19ZM89.282 38.92L89.0346 38.7503C88.9448 38.8813 88.9726 39.0596 89.0981 39.157L89.282 38.92ZM89.93 37.975L90.0981 37.7265C89.9615 37.6341 89.7759 37.6693 89.6826 37.8053L89.93 37.975ZM97.004 38.353L96.8249 38.1123L96.8222 38.1144L97.004 38.353ZM97.004 33.439L96.7919 33.6511L96.7944 33.6536L97.004 33.439ZM94.817 31.684L94.645 31.9298L94.6473 31.9314L94.817 31.684ZM92.927 30.334L92.7395 30.5684L92.747 30.574L92.927 30.334ZM91.658 29.2L91.4459 29.4122L91.4499 29.4161L91.658 29.2ZM91.55 23.179L91.3638 22.9438L91.3614 22.9457L91.55 23.179ZM99.191 23.044L99.4636 23.1692C99.5315 23.0216 99.4694 22.8467 99.3236 22.7749L99.191 23.044ZM98.732 24.043L98.6014 24.313C98.6739 24.3482 98.7575 24.3526 98.8334 24.3254C98.9093 24.2981 98.971 24.2415 99.0046 24.1682L98.732 24.043ZM94.871 22.933C93.8506 22.933 92.9895 23.1792 92.3128 23.6967L92.6773 24.1733C93.2246 23.7548 93.9474 23.533 94.871 23.533V22.933ZM92.3128 23.6967C91.6186 24.2276 91.277 24.9771 91.277 25.906H91.877C91.877 25.1429 92.1475 24.5784 92.6773 24.1733L92.3128 23.6967ZM91.277 25.906C91.277 26.9726 91.7254 27.9207 92.5848 28.7419L92.9993 28.3081C92.2386 27.5813 91.877 26.7834 91.877 25.906H91.277ZM92.5833 28.7405C93.174 29.3127 93.9254 29.9167 94.834 30.5528L95.1781 30.0612C94.2867 29.4373 93.5621 28.8533 93.0008 28.3095L92.5833 28.7405ZM94.8396 30.5566C95.758 31.1689 96.3787 31.6038 96.7101 31.8655L97.0819 31.3945C96.7293 31.1162 96.0901 30.6691 95.1724 30.0574L94.8396 30.5566ZM96.7101 31.8655C97.0415 32.127 97.4476 32.4887 97.9299 32.9531L98.3461 32.5209C97.8564 32.0493 97.4346 31.673 97.0819 31.3945L96.7101 31.8655ZM97.9259 32.9491C98.7568 33.78 99.161 34.7225 99.161 35.788H99.761C99.761 34.5495 99.2833 33.458 98.3502 32.5249L97.9259 32.9491ZM99.161 35.788C99.161 37.2072 98.6869 38.2452 97.7663 38.9521L98.1317 39.4279C99.2272 38.5868 99.761 37.3568 99.761 35.788H99.161ZM97.7669 38.9516C96.848 39.6533 95.5265 40.024 93.764 40.024V40.624C95.6015 40.624 97.0701 40.2387 98.1311 39.4284L97.7669 38.9516ZM93.764 40.024C92.037 40.024 90.6109 39.5716 89.466 38.683L89.0981 39.157C90.3652 40.1404 91.927 40.624 93.764 40.624V40.024ZM89.5294 39.0897L90.1774 38.1447L89.6826 37.8053L89.0346 38.7503L89.5294 39.0897ZM89.7619 38.2235C91.0314 39.0822 92.3853 39.517 93.818 39.517V38.917C92.5148 38.917 91.2767 38.5238 90.0981 37.7265L89.7619 38.2235ZM93.818 39.517C95.2238 39.517 96.359 39.2216 97.1858 38.5916L96.8222 38.1144C96.137 38.6364 95.1483 38.917 93.818 38.917V39.517ZM97.1831 38.5937C98.0402 37.9559 98.465 37.0528 98.465 35.923H97.865C97.865 36.8812 97.5159 37.5981 96.8249 38.1123L97.1831 38.5937ZM98.465 35.923C98.465 34.9262 98.0329 34.0246 97.2136 33.2244L96.7944 33.6536C97.5232 34.3654 97.865 35.1198 97.865 35.923H98.465ZM97.2162 33.2269C96.6587 32.6694 95.9137 32.0728 94.9868 31.4366L94.6473 31.9314C95.5563 32.5552 96.2693 33.1286 96.7919 33.6511L97.2162 33.2269ZM94.9891 31.4382C94.089 30.8082 93.4627 30.3607 93.107 30.094L92.747 30.574C93.1114 30.8473 93.745 31.2998 94.645 31.9298L94.9891 31.4382ZM93.1144 30.0997C92.764 29.8194 92.3482 29.4482 91.8661 28.9839L91.4499 29.4161C91.9398 29.8878 92.37 30.2726 92.7396 30.5683L93.1144 30.0997ZM91.8702 28.9879C91.0037 28.1214 90.581 27.134 90.581 26.014H89.981C89.981 27.306 90.4764 28.4426 91.4459 29.4121L91.8702 28.9879ZM90.581 26.014C90.581 24.8874 90.9713 24.0327 91.7386 23.4123L91.3614 22.9457C90.4367 23.6933 89.981 24.7286 89.981 26.014H90.581ZM91.7362 23.4142C92.5306 22.7854 93.6447 22.453 95.114 22.453V21.853C93.5593 21.853 92.2975 22.2046 91.3638 22.9438L91.7362 23.4142ZM95.114 22.453C96.5858 22.453 97.8986 22.7418 99.0585 23.3131L99.3236 22.7749C98.0715 22.1582 96.6662 21.853 95.114 21.853V22.453ZM98.9184 22.9187L98.4594 23.9177L99.0046 24.1682L99.4636 23.1692L98.9184 22.9187ZM98.8627 23.773C97.6994 23.2101 96.3664 22.933 94.871 22.933V23.533C96.2917 23.533 97.5327 23.7959 98.6014 24.313L98.8627 23.773ZM102.549 40H102.249C102.249 40.1657 102.383 40.3 102.549 40.3V40ZM102.549 22.477V22.177C102.383 22.177 102.249 22.3113 102.249 22.477H102.549ZM103.791 22.477H104.091C104.091 22.3113 103.956 22.177 103.791 22.177V22.477ZM103.791 40V40.3C103.956 40.3 104.091 40.1657 104.091 40H103.791ZM102.849 40V22.477H102.249V40H102.849ZM102.549 22.777H103.791V22.177H102.549V22.777ZM103.491 22.477V40H104.091V22.477H103.491ZM103.791 39.7H102.549V40.3H103.791V39.7ZM110.652 25.609L110.428 25.409L110.428 25.4092L110.652 25.609ZM110.922 36.841L110.709 37.0519L110.71 37.0531L110.922 36.841ZM121.182 38.407L121.299 38.6834C121.41 38.6365 121.482 38.5276 121.482 38.407H121.182ZM121.182 31.198V30.898C121.016 30.898 120.882 31.0323 120.882 31.198H121.182ZM122.424 31.198H122.724C122.724 31.0323 122.59 30.898 122.424 30.898V31.198ZM122.424 38.974L122.581 39.2295C122.67 39.1749 122.724 39.0782 122.724 38.974H122.424ZM109.95 37.651L109.739 37.8642L109.739 37.8642L109.95 37.651ZM109.68 24.799L109.46 24.595L109.459 24.5963L109.68 24.799ZM121.83 23.152L122.116 23.2423C122.166 23.0852 122.079 22.9174 121.923 22.8666L121.83 23.152ZM121.506 24.178L121.418 24.4647C121.575 24.5132 121.743 24.4255 121.792 24.2683L121.506 24.178ZM115.701 23.014C113.615 23.014 111.852 23.8174 110.428 25.409L110.876 25.809C112.189 24.3406 113.791 23.614 115.701 23.614V23.014ZM110.428 25.4092C109.025 26.9814 108.327 28.9177 108.327 31.198H108.927C108.927 29.0503 109.58 27.2606 110.876 25.8088L110.428 25.4092ZM108.327 31.198C108.327 33.4894 109.122 35.4467 110.709 37.0519L111.135 36.6301C109.662 35.1393 108.927 33.3346 108.927 31.198H108.327ZM110.71 37.0531C112.293 38.6366 114.169 39.436 116.322 39.436V38.836C114.336 38.836 112.611 38.1054 111.134 36.6289L110.71 37.0531ZM116.322 39.436C118.427 39.436 120.093 39.192 121.299 38.6834L121.065 38.1306C119.967 38.594 118.393 38.836 116.322 38.836V39.436ZM121.482 38.407V31.198H120.882V38.407H121.482ZM121.182 31.498H122.424V30.898H121.182V31.498ZM122.124 31.198V38.974H122.724V31.198H122.124ZM122.267 38.7185C120.93 39.5414 119.004 39.97 116.457 39.97V40.57C119.058 40.57 121.111 40.1346 122.581 39.2295L122.267 38.7185ZM116.457 39.97C113.959 39.97 111.867 39.1259 110.161 37.4378L109.739 37.8642C111.562 39.6681 113.807 40.57 116.457 40.57V39.97ZM110.161 37.4378C108.455 35.7495 107.604 33.6849 107.604 31.225H107.004C107.004 33.8411 107.917 36.0605 109.739 37.8642L110.161 37.4378ZM107.604 31.225C107.604 28.7367 108.373 26.6692 109.901 25.0017L109.459 24.5963C107.819 26.3848 107.004 28.6013 107.004 31.225H107.604ZM109.9 25.003C111.441 23.3408 113.42 22.507 115.863 22.507V21.907C113.266 21.907 111.123 22.8012 109.46 24.595L109.9 25.003ZM115.863 22.507C117.866 22.507 119.823 22.817 121.738 23.4374L121.923 22.8666C119.949 22.227 117.929 21.907 115.863 21.907V22.507ZM121.544 23.0617L121.22 24.0877L121.792 24.2683L122.116 23.2423L121.544 23.0617ZM121.594 23.8913C119.693 23.3063 117.728 23.014 115.701 23.014V23.614C117.67 23.614 119.575 23.8977 121.418 24.4647L121.594 23.8913ZM139.847 40H139.547C139.547 40.1657 139.681 40.3 139.847 40.3V40ZM139.847 31.144H140.147C140.147 30.9783 140.012 30.844 139.847 30.844V31.144ZM127.67 31.144V30.844C127.504 30.844 127.37 30.9783 127.37 31.144H127.67ZM127.67 40V40.3C127.835 40.3 127.97 40.1657 127.97 40H127.67ZM126.428 40H126.128C126.128 40.1657 126.262 40.3 126.428 40.3V40ZM126.428 22.477V22.177C126.262 22.177 126.128 22.3113 126.128 22.477H126.428ZM127.67 22.477H127.97C127.97 22.3113 127.835 22.177 127.67 22.177V22.477ZM127.67 30.037H127.37C127.37 30.2027 127.504 30.337 127.67 30.337V30.037ZM139.847 30.037V30.337C140.012 30.337 140.147 30.2027 140.147 30.037H139.847ZM139.847 22.477V22.177C139.681 22.177 139.547 22.3113 139.547 22.477H139.847ZM141.089 22.477H141.389C141.389 22.3113 141.254 22.177 141.089 22.177V22.477ZM141.089 40V40.3C141.254 40.3 141.389 40.1657 141.389 40H141.089ZM140.147 40V31.144H139.547V40H140.147ZM139.847 30.844H127.67V31.444H139.847V30.844ZM127.37 31.144V40H127.97V31.144H127.37ZM127.67 39.7H126.428V40.3H127.67V39.7ZM126.728 40V22.477H126.128V40H126.728ZM126.428 22.777H127.67V22.177H126.428V22.777ZM127.37 22.477V30.037H127.97V22.477H127.37ZM127.67 30.337H139.847V29.737H127.67V30.337ZM140.147 30.037V22.477H139.547V30.037H140.147ZM139.847 22.777H141.089V22.177H139.847V22.777ZM140.789 22.477V40H141.389V22.477H140.789ZM141.089 39.7H139.847V40.3H141.089V39.7ZM148.816 23.584H149.116C149.116 23.4183 148.982 23.284 148.816 23.284V23.584ZM142.876 23.584H142.576C142.576 23.7497 142.71 23.884 142.876 23.884V23.584ZM142.876 22.477V22.177C142.71 22.177 142.576 22.3113 142.576 22.477H142.876ZM155.971 22.477H156.271C156.271 22.3113 156.137 22.177 155.971 22.177V22.477ZM155.971 23.584V23.884C156.137 23.884 156.271 23.7497 156.271 23.584H155.971ZM150.031 23.584V23.284C149.865 23.284 149.731 23.4183 149.731 23.584H150.031ZM150.031 40V40.3C150.197 40.3 150.331 40.1657 150.331 40H150.031ZM148.816 40H148.516C148.516 40.1657 148.65 40.3 148.816 40.3V40ZM148.816 23.284H142.876V23.884H148.816V23.284ZM143.176 23.584V22.477H142.576V23.584H143.176ZM142.876 22.777H155.971V22.177H142.876V22.777ZM155.671 22.477V23.584H156.271V22.477H155.671ZM155.971 23.284H150.031V23.884H155.971V23.284ZM149.731 23.584V40H150.331V23.584H149.731ZM150.031 39.7H148.816V40.3H150.031V39.7ZM149.116 40V23.584H148.516V40H149.116ZM167.796 37.462L167.589 37.6789L167.59 37.6799L167.796 37.462ZM167.418 23.26L167.638 23.4637L167.639 23.4626L167.418 23.26ZM180.756 21.451L181.041 21.5437C181.092 21.3862 181.006 21.2169 180.849 21.1657L180.756 21.451ZM180.405 22.531L180.319 22.8183C180.475 22.8652 180.64 22.7788 180.69 22.6237L180.405 22.531ZM168.417 24.097L168.192 23.8984L168.192 23.8984L168.417 24.097ZM168.768 36.571L168.556 36.7831L168.558 36.7853L168.768 36.571ZM180.54 38.164L180.814 38.0429C180.748 37.8934 180.575 37.8242 180.424 37.8873L180.54 38.164ZM180.945 39.082L181.095 39.3416C181.228 39.265 181.281 39.1009 181.219 38.9609L180.945 39.082ZM178.245 40L178.188 39.7055L178.187 39.7056L178.245 40ZM175.032 40.024C172.3 40.024 169.962 39.0987 168.002 37.2441L167.59 37.6799C169.662 39.6413 172.148 40.624 175.032 40.624V40.024ZM168.003 37.2451C166.047 35.3761 165.072 33.0877 165.072 30.361H164.472C164.472 33.2503 165.513 35.6959 167.589 37.6789L168.003 37.2451ZM165.072 30.361C165.072 27.6033 165.93 25.3112 167.638 23.4637L167.198 23.0563C165.378 25.0248 164.472 27.4667 164.472 30.361H165.072ZM167.639 23.4626C169.343 21.6024 171.52 20.671 174.195 20.671V20.071C171.362 20.071 169.021 21.0656 167.197 23.0574L167.639 23.4626ZM174.195 20.671C176.321 20.671 178.477 21.0253 180.663 21.7363L180.849 21.1657C178.607 20.4367 176.389 20.071 174.195 20.071V20.671ZM180.471 21.3583L180.12 22.4383L180.69 22.6237L181.041 21.5437L180.471 21.3583ZM180.491 22.2437C178.307 21.5884 176.208 21.259 174.195 21.259V21.859C176.142 21.859 178.183 22.1776 180.319 22.8183L180.491 22.2437ZM174.195 21.259C171.755 21.259 169.746 22.1387 168.192 23.8984L168.642 24.2956C170.076 22.6713 171.919 21.859 174.195 21.859V21.259ZM168.192 23.8984C166.645 25.6501 165.876 27.7926 165.876 30.307H166.476C166.476 27.9254 167.2 25.9279 168.642 24.2956L168.192 23.8984ZM165.876 30.307C165.876 32.8344 166.771 34.9988 168.556 36.7831L168.98 36.3589C167.308 34.6872 166.476 32.6756 166.476 30.307H165.876ZM168.558 36.7853C170.36 38.5499 172.523 39.436 175.032 39.436V38.836C172.681 38.836 170.668 38.0121 168.978 36.3567L168.558 36.7853ZM175.032 39.436C177.186 39.436 179.063 39.1076 180.656 38.4407L180.424 37.8873C178.921 38.5164 177.126 38.836 175.032 38.836V39.436ZM180.265 38.2851L180.67 39.2031L181.219 38.9609L180.814 38.0429L180.265 38.2851ZM180.795 38.8224C180.149 39.196 179.284 39.4933 178.188 39.7055L178.302 40.2945C179.438 40.0747 180.373 39.76 181.095 39.3416L180.795 38.8224ZM178.187 39.7056C177.107 39.9182 176.055 40.024 175.032 40.024V40.624C176.097 40.624 177.187 40.5138 178.303 40.2944L178.187 39.7056ZM183.81 40H183.51C183.51 40.1657 183.644 40.3 183.81 40.3V40ZM183.81 22.558L183.786 22.259C183.63 22.2717 183.51 22.4018 183.51 22.558H183.81ZM191.856 23.665L191.669 23.8993L191.671 23.9012L191.856 23.665ZM192.558 30.253L192.806 30.4217L192.806 30.4217L192.558 30.253ZM190.479 32.44L190.304 32.1966C190.238 32.2438 190.195 32.3153 190.182 32.3951C190.17 32.4748 190.191 32.5561 190.239 32.6205L190.479 32.44ZM194.448 37.543L194.225 37.7442L194.232 37.7514L194.448 37.543ZM197.796 39.352L198.096 39.3617C198.101 39.2061 197.986 39.0726 197.832 39.0541L197.796 39.352ZM197.769 40.189L197.764 40.489C197.928 40.4919 198.064 40.3626 198.069 40.1987L197.769 40.189ZM195.312 39.757L195.187 40.0299L195.194 40.0327L195.312 39.757ZM193.422 38.326L193.201 38.529L193.204 38.5322L193.422 38.326ZM189.345 32.953L189.588 32.7774C189.532 32.6993 189.441 32.653 189.345 32.653V32.953ZM185.052 32.818L185.071 32.5186C184.989 32.5133 184.907 32.5425 184.847 32.5992C184.786 32.6559 184.752 32.7351 184.752 32.818H185.052ZM185.052 40V40.3C185.218 40.3 185.352 40.1657 185.352 40H185.052ZM190.938 30.523L190.711 30.3267L190.711 30.3267L190.938 30.523ZM190.884 24.421L191.066 24.1828L191.066 24.1828L190.884 24.421ZM185.052 23.557L185.03 23.2578C184.873 23.2694 184.752 23.3999 184.752 23.557H185.052ZM185.052 31.792H184.752C184.752 31.9496 184.874 32.0804 185.031 32.0913L185.052 31.792ZM184.11 40V22.558H183.51V40H184.11ZM183.834 22.857C185.377 22.7314 186.683 22.669 187.752 22.669V22.069C186.661 22.069 185.339 22.1326 183.786 22.259L183.834 22.857ZM187.752 22.669C189.354 22.669 190.652 23.0858 191.669 23.8993L192.043 23.4307C190.9 22.5162 189.462 22.069 187.752 22.069V22.669ZM191.671 23.9012C192.667 24.6811 193.176 25.8021 193.176 27.31H193.776C193.776 25.6499 193.205 24.3409 192.041 23.4288L191.671 23.9012ZM193.176 27.31C193.176 28.3103 192.889 29.2327 192.31 30.0843L192.806 30.4217C193.451 29.4733 193.776 28.4337 193.776 27.31H193.176ZM192.31 30.0843C191.715 30.9594 191.046 31.6618 190.304 32.1966L190.655 32.6834C191.461 32.1022 192.177 31.3466 192.806 30.4217L192.31 30.0843ZM190.239 32.6205C192.378 35.4593 193.71 37.1737 194.225 37.7441L194.671 37.3419C194.178 36.7963 192.865 35.1087 190.719 32.2595L190.239 32.6205ZM194.232 37.7514C195.296 38.852 196.472 39.496 197.761 39.6499L197.832 39.0541C196.708 38.92 195.653 38.358 194.664 37.3346L194.232 37.7514ZM197.496 39.3423L197.469 40.1793L198.069 40.1987L198.096 39.3617L197.496 39.3423ZM197.774 39.889C196.789 39.8714 196.012 39.7305 195.43 39.4813L195.194 40.0327C195.872 40.3235 196.734 40.4706 197.764 40.489L197.774 39.889ZM195.437 39.4842C194.851 39.2165 194.252 38.7664 193.64 38.1198L193.204 38.5322C193.853 39.2176 194.513 39.7215 195.187 40.0298L195.437 39.4842ZM193.643 38.123C193.046 37.473 191.698 35.6987 189.588 32.7774L189.102 33.1286C191.204 36.0393 192.575 37.847 193.201 38.529L193.643 38.123ZM189.345 32.653C187.893 32.653 186.469 32.6082 185.071 32.5186L185.033 33.1174C186.444 33.2078 187.881 33.253 189.345 33.253V32.653ZM184.752 32.818V40H185.352V32.818H184.752ZM185.052 39.7H183.81V40.3H185.052V39.7ZM188.67 32.227C189.507 32.227 190.339 31.6738 191.165 30.7193L190.711 30.3267C189.917 31.2442 189.237 31.627 188.67 31.627V32.227ZM191.165 30.7193C192.022 29.7286 192.453 28.5698 192.453 27.256H191.853C191.853 28.4262 191.474 29.4454 190.711 30.3267L191.165 30.7193ZM192.453 27.256C192.453 25.9381 191.999 24.8974 191.066 24.1828L190.702 24.6592C191.461 25.2406 191.853 26.0899 191.853 27.256H192.453ZM191.066 24.1828C190.156 23.4851 188.988 23.149 187.59 23.149V23.749C188.892 23.749 189.921 24.0609 190.702 24.6592L191.066 24.1828ZM187.59 23.149C186.861 23.149 186.007 23.1854 185.03 23.2578L185.074 23.8562C186.041 23.7845 186.88 23.749 187.59 23.749V23.149ZM184.752 23.557V31.792H185.352V23.557H184.752ZM185.031 32.0913C186.333 32.1817 187.546 32.227 188.67 32.227V31.627C187.562 31.627 186.363 31.5823 185.073 31.4927L185.031 32.0913ZM199.146 37.651L199.361 37.4422L199.146 37.651ZM199.146 24.826L199.361 25.0348L199.361 25.0348L199.146 24.826ZM211.728 24.826L211.943 24.6172L211.943 24.6172L211.728 24.826ZM211.728 37.651L211.943 37.8598L211.943 37.8598L211.728 37.651ZM200.037 25.609L199.818 25.4034L199.817 25.4048L200.037 25.609ZM200.037 36.868L199.817 37.0722L199.819 37.0749L200.037 36.868ZM210.837 36.868L211.055 37.0735L211.056 37.0722L210.837 36.868ZM210.837 25.609L211.056 25.4048L211.056 25.4048L210.837 25.609ZM205.437 39.97C203.013 39.97 200.995 39.128 199.361 37.4422L198.93 37.8598C200.681 39.666 202.856 40.57 205.437 40.57V39.97ZM199.361 37.4422C197.725 35.7544 196.908 33.6972 196.908 31.252H196.308C196.308 33.8468 197.182 36.0556 198.93 37.8598L199.361 37.4422ZM196.908 31.252C196.908 28.7881 197.726 26.7221 199.361 25.0348L198.93 24.6172C197.181 26.4219 196.308 28.6399 196.308 31.252H196.908ZM199.361 25.0348C200.995 23.349 203.013 22.507 205.437 22.507V21.907C202.856 21.907 200.681 22.811 198.93 24.6172L199.361 25.0348ZM205.437 22.507C207.86 22.507 209.879 23.349 211.512 25.0348L211.943 24.6172C210.193 22.811 208.017 21.907 205.437 21.907V22.507ZM211.512 25.0348C213.147 26.7221 213.966 28.7881 213.966 31.252H214.566C214.566 28.6399 213.692 26.4219 211.943 24.6172L211.512 25.0348ZM213.966 31.252C213.966 33.6972 213.148 35.7544 211.512 37.4422L211.943 37.8598C213.691 36.0556 214.566 33.8468 214.566 31.252H213.966ZM211.512 37.4422C209.879 39.128 207.86 39.97 205.437 39.97V40.57C208.017 40.57 210.193 39.666 211.943 37.8598L211.512 37.4422ZM205.437 23.014C203.197 23.014 201.317 23.8113 199.818 25.4034L200.255 25.8146C201.637 24.3467 203.357 23.614 205.437 23.614V23.014ZM199.817 25.4048C198.34 26.9943 197.604 28.9499 197.604 31.252H198.204C198.204 29.0901 198.89 27.2837 200.256 25.8132L199.817 25.4048ZM197.604 31.252C197.604 33.5368 198.34 35.4832 199.817 37.0722L200.256 36.6638C198.889 35.1928 198.204 33.3952 198.204 31.252H197.604ZM199.819 37.0749C201.318 38.6486 203.198 39.436 205.437 39.436V38.836C203.356 38.836 201.635 38.1114 200.254 36.6611L199.819 37.0749ZM205.437 39.436C207.693 39.436 209.573 38.6491 211.055 37.0735L210.618 36.6625C209.256 38.1109 207.536 38.836 205.437 38.836V39.436ZM211.056 37.0722C212.533 35.4832 213.27 33.5368 213.27 31.252H212.67C212.67 33.3952 211.984 35.1928 210.617 36.6638L211.056 37.0722ZM213.27 31.252C213.27 28.9499 212.534 26.9943 211.056 25.4048L210.617 25.8132C211.984 27.2837 212.67 29.0901 212.67 31.252H213.27ZM211.056 25.4048C209.575 23.8108 207.694 23.014 205.437 23.014V23.614C207.535 23.614 209.254 24.3472 210.617 25.8132L211.056 25.4048ZM221.636 35.734L221.915 35.8454L221.916 35.8433L221.636 35.734ZM226.685 22.828V22.528C226.562 22.528 226.451 22.6037 226.406 22.7187L226.685 22.828ZM227.468 22.828L227.753 22.7317C227.711 22.6099 227.597 22.528 227.468 22.528V22.828ZM231.869 35.815L232.157 35.7297L232.154 35.7187L231.869 35.815ZM232.517 38.002L232.23 38.0872C232.27 38.2216 232.397 38.3106 232.537 38.3014C232.677 38.2921 232.792 38.1873 232.814 38.0488L232.517 38.002ZM233.192 35.842L233.475 35.9438L233.477 35.9374L233.192 35.842ZM237.674 22.477V22.177C237.546 22.177 237.431 22.2594 237.39 22.3816L237.674 22.477ZM238.97 22.477L239.254 22.5751C239.286 22.4834 239.271 22.382 239.215 22.303C239.159 22.2239 239.067 22.177 238.97 22.177V22.477ZM232.868 40.108V40.408C232.996 40.408 233.11 40.327 233.152 40.2061L232.868 40.108ZM232.139 40.108L231.856 40.2068C231.898 40.3273 232.012 40.408 232.139 40.408V40.108ZM227.468 26.662L227.755 26.5716L227.753 26.5671L227.468 26.662ZM226.982 25.231L227.266 25.1329C227.223 25.0096 227.106 24.928 226.975 24.9311C226.845 24.9342 226.731 25.0212 226.695 25.1463L226.982 25.231ZM226.253 27.148L225.976 27.0348L225.974 27.0381L226.253 27.148ZM221.15 40.108V40.408C221.274 40.408 221.384 40.3326 221.43 40.2179L221.15 40.108ZM220.421 40.108L220.138 40.2069C220.18 40.3273 220.294 40.408 220.421 40.408V40.108ZM214.265 22.477V22.177C214.168 22.177 214.077 22.2241 214.021 22.3033C213.965 22.3826 213.95 22.4841 213.982 22.5759L214.265 22.477ZM215.642 22.477L215.927 22.3807C215.885 22.2589 215.771 22.177 215.642 22.177V22.477ZM220.097 35.626L219.813 35.7223L219.814 35.7251L220.097 35.626ZM220.799 38.029L220.508 38.1004C220.541 38.2343 220.661 38.3287 220.799 38.329C220.937 38.3293 221.057 38.2356 221.09 38.1018L220.799 38.029ZM221.916 35.8433L226.965 22.9373L226.406 22.7187L221.357 35.6247L221.916 35.8433ZM226.685 23.128H227.468V22.528H226.685V23.128ZM227.184 22.9243L231.585 35.9113L232.154 35.7187L227.753 22.7317L227.184 22.9243ZM231.582 35.9002L232.23 38.0872L232.805 37.9168L232.157 35.7298L231.582 35.9002ZM232.814 38.0488C232.862 37.7404 233.076 37.0487 233.475 35.9438L232.91 35.7402C232.517 36.8313 232.28 37.5796 232.221 37.9552L232.814 38.0488ZM233.477 35.9374L237.959 22.5724L237.39 22.3816L232.908 35.7466L233.477 35.9374ZM237.674 22.777H238.97V22.177H237.674V22.777ZM238.687 22.3789L232.585 40.0099L233.152 40.2061L239.254 22.5751L238.687 22.3789ZM232.868 39.808H232.139V40.408H232.868V39.808ZM232.423 40.0092C229.415 31.3825 227.861 26.908 227.755 26.5717L227.182 26.7523C227.292 27.1 228.852 31.5895 231.856 40.2068L232.423 40.0092ZM227.753 26.5671C227.591 26.0801 227.428 25.602 227.266 25.1329L226.699 25.3291C226.861 25.796 227.022 26.2719 227.184 26.7569L227.753 26.5671ZM226.695 25.1463C226.61 25.4351 226.373 26.0595 225.976 27.0348L226.531 27.2612C226.926 26.2925 227.175 25.6389 227.27 25.3156L226.695 25.1463ZM225.974 27.0381L220.871 39.9981L221.43 40.2179L226.533 27.2579L225.974 27.0381ZM221.15 39.808H220.421V40.408H221.15V39.808ZM220.705 40.0091L214.549 22.3781L213.982 22.5759L220.138 40.2069L220.705 40.0091ZM214.265 22.777H215.642V22.177H214.265V22.777ZM215.358 22.5733L219.813 35.7223L220.382 35.5297L215.927 22.3807L215.358 22.5733ZM219.814 35.7251C220.063 36.4345 220.294 37.226 220.508 38.1004L221.091 37.9576C220.873 37.068 220.636 36.2575 220.381 35.5269L219.814 35.7251ZM221.09 38.1018C221.175 37.7654 221.445 37.0203 221.915 35.8454L221.358 35.6226C220.892 36.7877 220.604 37.5726 220.508 37.9562L221.09 38.1018Z" fill="#FF7F00" mask="url(#path-1-outside-1_3_9)"/>
<path d="M31.637 17.3111L34.3293 7.94081C35.5658 5.21284 38.0263 5.13781 41.762 5.00034C43.8091 4.97985 44.7874 5.88251 45.9752 6.91166C46.9427 7.74994 47.7554 10.0057 47.951 11.3124C48.0146 11.7378 48.2421 12.16 48.6262 12.3537L56.637 16.3925L47.9831 18" stroke="#FF7F00" stroke-width="3" stroke-linecap="round"/>
<path d="M4.87726 16L39.637 24.8149" stroke="#FF7F00" stroke-width="3" stroke-linecap="round"/>
<path d="M23.2943 38L39.637 42.1444" stroke="#FF7F00" stroke-width="3" stroke-linecap="round"/>
<path d="M13.6011 27L39.637 33.6026" stroke="#FF7F00" stroke-width="3" stroke-linecap="round"/>
</svg>
